<svg t="1565081504772" class="icon" viewBox="0 0 1024 1024" version="1.1" xmlns="http://www.w3.org/2000/svg" p-id="4924" width="200" height="200"><path d="M204.8 437.5552c-11.264 0-20.48-9.216-20.48-20.48v-171.008c0-33.8944 27.5456-61.44 61.44-61.44h166.7072c11.264 0 20.48 9.216 20.48 20.48s-9.216 20.48-20.48 20.48H245.76c-11.264 0-20.48 9.216-20.48 20.48v171.008c0 11.3664-9.216 20.48-20.48 20.48zM818.9952 436.8384c-11.264 0-20.48-9.216-20.48-20.48V246.0672c0-5.4272-2.1504-10.6496-6.0416-14.4384s-9.0112-6.0416-14.4384-6.0416h-171.008c-11.264 0-20.48-9.216-20.48-20.48s9.216-20.48 20.48-20.48h171.008c16.384 0 31.8464 6.3488 43.4176 18.0224 11.5712 11.5712 18.0224 27.0336 18.0224 43.4176v170.2912c0 11.3664-9.216 20.48-20.48 20.48zM778.0352 839.2704H611.328c-11.264 0-20.48-9.216-20.48-20.48s9.216-20.48 20.48-20.48h166.7072c11.264 0 20.48-9.216 20.48-20.48V611.328c0-11.264 9.216-20.48 20.48-20.48s20.48 9.216 20.48 20.48v166.5024c0 33.8944-27.648 61.44-61.44 61.44zM416.768 839.2704H245.76c-33.8944 0-61.44-27.5456-61.44-61.44V611.2256c0-11.264 9.216-20.48 20.48-20.48s20.48 9.216 20.48 20.48v166.7072c0 11.264 9.216 20.48 20.48 20.48h171.008c11.264 0 20.48 9.216 20.48 20.48s-9.216 20.3776-20.48 20.3776zM819.3024 534.016H204.6976c-11.264 0-20.48-9.216-20.48-20.48s9.216-20.48 20.48-20.48H819.2c11.264 0 20.48 9.216 20.48 20.48s-9.1136 20.48-20.3776 20.48z" p-id="4925" fill="#0099FF"></path></svg>